<svg xmlns="http://www.w3.org/2000/svg" viewBox="0 0 96 96" role="img" aria-label="上海旅遊攻略網 logo">
  <defs>
    <linearGradient id="sky" x1="18" x2="82" y1="8" y2="88" gradientUnits="userSpaceOnUse">
      <stop stop-color="#0f6bdc"/>
      <stop offset="1" stop-color="#0945a5"/>
    </linearGradient>
    <linearGradient id="gold" x1="32" x2="72" y1="16" y2="56" gradientUnits="userSpaceOnUse">
      <stop stop-color="#ffd36a"/>
      <stop offset="1" stop-color="#f59e0b"/>
    </linearGradient>
  </defs>
  <rect width="96" height="96" rx="22" fill="url(#sky)"/>
  <circle cx="66" cy="26" r="11" fill="url(#gold)"/>
  <path d="M18 65c10-8 20-8 30 0s20 8 30 0" fill="none" stroke="#bfdbfe" stroke-width="5" stroke-linecap="round"/>
  <path d="M20 74c9-6 18-6 27 0s18 6 27 0" fill="none" stroke="#ffffff" stroke-opacity=".88" stroke-width="4" stroke-linecap="round"/>
  <path d="M27 56V42h8v14h5V33h8v23h5V23h8v33h8V41h8v15" fill="none" stroke="#fff" stroke-width="5" stroke-linecap="round" stroke-linejoin="round"/>
  <path d="M56 22c0-6 5-11 11-11s11 5 11 11c0 8-11 20-11 20S56 30 56 22Z" fill="#f59e0b"/>
  <circle cx="67" cy="22" r="4" fill="#fff"/>
  <path d="M41 56h12l-6 7-6-7Z" fill="#ffd36a"/>
</svg>
